<svg width="119" height="118" viewBox="0 0 119 118" fill="none" xmlns="http://www.w3.org/2000/svg">
<path d="M0.115234 68.915H68.8188V83.5328H93.3921V117.985H0.115234V68.915ZM49.2695 88.3336H58.8864V78.8666H49.2695V88.3336ZM39.3294 88.399V82.3595C39.3294 78.7205 39.3294 78.7205 35.6518 78.7205H29.7047V88.399H39.3294ZM49.0771 108.041V98.5045H39.4832V108.041H49.0771ZM19.5146 88.3951V78.7282C16.5025 78.7282 13.5944 78.7282 10.6862 78.7551C10.4323 78.7551 9.96686 79.1398 9.96301 79.3783C9.913 82.3634 9.92839 85.3523 9.92839 88.3951H19.5146ZM29.3777 98.5237H19.8723V108.01H29.3777V98.5237Z" fill="white"/>
<path d="M47.2116 49.2695L51.8662 33.113C48.5849 33.9516 45.5267 34.8479 42.4147 35.5172C30.0716 38.1766 18.3479 36.4763 7.2435 30.4164C6.79529 30.1794 6.44118 29.7967 6.23949 29.3316C5.79326 28.0275 5.48936 26.6734 5.08545 25.2271C5.9279 24.977 6.68956 24.7462 7.45892 24.5269C8.22828 24.3077 8.92454 24.123 9.76699 23.8845L0 6.197C3.13128 5.3584 6.101 4.52365 9.09765 3.8043C9.55926 3.69274 10.194 4.03126 10.6633 4.30438C17.8953 8.44865 25.1118 12.616 32.313 16.8064C32.7083 17.0595 33.1545 17.2224 33.6199 17.2836C34.0853 17.3447 34.5585 17.3027 35.0058 17.1603C53.8858 12.0621 72.7709 6.98559 91.6612 1.93091C97.4314 0.392199 103.305 -0.527183 109.295 0.326803C110.995 0.560993 112.66 1.00683 114.25 1.65394C117.712 3.10803 118.804 5.82386 117.527 9.39753C116.989 10.9258 116.145 12.3282 115.047 13.5188C113.948 14.7094 112.618 15.6632 111.138 16.3217C107.906 17.8066 104.452 18.8683 101.017 19.8377C92.9691 22.1112 84.8601 24.2 76.7819 26.4157C76.0663 26.6303 75.4192 27.0281 74.9046 27.5697C69.1806 33.6707 63.472 39.841 57.7018 45.9497C57.0766 46.5783 56.2983 47.033 55.4437 47.2691C52.8356 47.9923 50.1736 48.5655 47.2116 49.2695Z" fill="white"/>
<path d="M113.122 118H103.271C103.24 117.396 103.178 116.8 103.178 116.204C103.178 102.578 103.178 88.9529 103.178 75.3276C103.178 74.1736 102.952 73.2542 102.001 72.5925C98.7932 70.3499 97.9199 67.3224 98.1546 63.4526C98.4893 57.6824 98.2431 51.8468 98.2431 46.042V44.3917H117.95C117.973 44.9072 118.012 45.3765 118.012 45.842C118.012 53.0855 118.042 60.329 117.973 67.5725C117.973 68.3418 117.612 69.3689 117.054 69.7728C113.699 72.2079 112.922 75.3738 113.015 79.4398C113.288 91.6649 113.115 103.905 113.115 116.138L113.122 118Z" fill="white"/>
</svg>
