<svg width="118" height="99" viewBox="0 0 118 99" fill="none" xmlns="http://www.w3.org/2000/svg">
<g clip-path="url(#clip0_21_56)">
<path d="M31.1078 68.504C34.8755 62.4156 38.5008 56.5735 42.2339 50.539C38.7202 49.8886 35.3874 49.3613 32.0969 48.6494C19.5275 45.9207 9.43283 39.3359 1.80118 28.9949C1.48879 28.4777 1.36124 27.8698 1.43942 27.2707C1.56642 26.0431 1.85891 24.8308 2.12061 23.4222L11.0531 24.927V0C15.1979 0.719676 19.0157 1.35084 22.8142 2.08591C23.2529 2.17058 23.6878 2.77095 23.9418 3.24047C28.537 11.5995 33.1116 19.9649 37.6657 28.3368C38.2007 29.3259 38.7818 29.8762 40.0018 30.0725C52.929 32.2854 65.8447 34.5791 78.7565 36.8767C87.2233 38.3853 95.7363 39.8439 104.188 41.4949C108.045 42.2053 111.576 44.1215 114.275 46.9676C118.277 51.2009 117.438 56.2541 112.254 58.9442C108.306 60.9955 104.045 61.2225 99.7657 60.576C93.8505 59.6831 87.9738 58.5401 82.0624 57.5587C81.3708 57.457 80.6647 57.5338 80.0112 57.7819C69.0236 62.0153 58.0745 66.2911 47.0715 70.5052C46.1966 70.8288 45.2545 70.928 44.3314 70.7938C39.9902 70.1127 35.6606 69.3045 31.1078 68.504Z" fill="white"/>
<path d="M0 98.3571V88.6318H118V98.3571H0Z" fill="white"/>
</g>
<defs>
<clipPath id="clip0_21_56">
<rect width="118" height="98.3571" fill="white"/>
</clipPath>
</defs>
</svg>
