<svg width="138" height="66" viewBox="0 0 138 66" fill="none" xmlns="http://www.w3.org/2000/svg">
<path d="M44.9152 11.0456L113.013 0L6.812 66C6.812 66 60.2251 31.1769 60.6211 16.5985C60.6211 16.5985 62.1684 9.6833 44.9152 11.0456Z" fill="url(#paint0_linear_2_38)"/>
<path d="M3.28365 51.7641V57.5789H0V42.3828H14.4287V45.4453H3.28365V48.7985H10.8167V51.7641H3.28365Z" fill="white"/>
<path d="M20.4096 57.5789V42.3828H23.6933V54.4583H33.3317V57.5789H20.4096Z" fill="white"/>
<path d="M43.805 57.5789V51.5509L37.0059 42.3635H41.0622L45.4275 48.2946L49.8122 42.3635H53.8684L47.0694 51.5509V57.5789H43.805Z" fill="white"/>
<path d="M73.5667 51.5315V57.5789H70.2831V42.3828H73.5667V48.4109H82.278V42.3828H85.5424V57.5789H82.278V51.5315H73.5667Z" fill="white"/>
<path d="M95.391 42.3828V57.5789H92.1074V42.3828H95.391Z" fill="white"/>
<path d="M101.181 49.9809C101.181 48.5659 101.568 47.2479 102.34 46.0655C103.113 44.8832 104.136 43.9528 105.411 43.2938C106.705 42.6348 108.077 42.3053 109.564 42.3053C110.955 42.3053 112.288 42.6154 113.543 43.2357C114.799 43.8365 115.803 44.6894 116.556 45.7554L113.891 47.5774C112.944 46.2594 111.283 45.4647 109.564 45.4647C108.154 45.4647 106.937 45.9105 105.952 46.7827C104.967 47.6549 104.465 48.721 104.465 49.9809C104.465 51.2213 104.967 52.2874 105.952 53.179C106.957 54.0512 108.154 54.497 109.564 54.497C111.341 54.497 112.751 53.838 113.794 52.52V51.8997H109.023V49.1474H116.943V53.6442C115.224 56.2802 112.597 57.6564 109.564 57.6564C107.266 57.6564 105.295 56.9199 103.654 55.4274C102.012 53.9349 101.181 52.1323 101.181 49.9809Z" fill="white"/>
<path d="M126.024 51.5315V57.5789H122.741V42.3828H126.024V48.4109H134.736V42.3828H138V57.5789H134.736V51.5315H126.024Z" fill="white"/>
<defs>
<linearGradient id="paint0_linear_2_38" x1="137.784" y1="1.64162e-06" x2="33.6382" y2="81.5328" gradientUnits="userSpaceOnUse">
<stop offset="0.46875" stop-color="white"/>
<stop offset="1" stop-color="white" stop-opacity="0.5"/>
</linearGradient>
</defs>
</svg>
