<svg width="90" height="118" viewBox="0 0 90 118" fill="none" xmlns="http://www.w3.org/2000/svg">
<path d="M40.054 117.967L35.1494 117.498C24.0016 116.452 13.1216 114.273 2.6616 110.139C0.713737 109.368 -0.0357585 108.055 0.00130448 106.222C0.0630761 103.311 0.0713123 100.366 0.507832 97.496C1.33145 92.1671 2.31705 86.8658 3.46463 81.5918C3.96704 79.3022 5.03363 77.1278 5.88608 74.9164C7.35213 71.1236 10.3172 69.0028 14.0029 67.652C17.5239 66.359 21.0284 65.0247 24.4917 63.5957C27.5373 62.4334 30.2321 60.5059 32.3161 57.9992C32.8185 58.8228 33.358 59.4117 33.6051 60.1159C35.5553 65.8023 37.9256 71.3358 40.6964 76.6707C40.7994 76.8684 40.9106 77.0578 41.1865 77.5643C41.2895 75.9171 41.4707 74.5499 41.4212 73.2074C41.3801 72.0049 41.693 71.1483 42.8049 70.5924C43.2129 70.3504 43.5999 70.075 43.9621 69.7687C43.7974 69.6328 43.6944 69.534 43.5791 69.4517C41.5201 67.9444 41.5201 67.9444 42.2284 65.56C42.2902 65.3418 42.3478 65.1194 42.4137 64.897C43.0438 62.7021 43.0479 62.7762 45.3581 62.6732C46.4536 62.6238 47.0054 62.9492 47.1372 64.0157C47.2099 64.3915 47.3089 64.7617 47.4337 65.1235C48.2285 67.9321 48.2326 67.9321 45.947 69.6781C45.947 69.7358 45.947 69.8388 45.9882 69.8552C48.2202 70.8271 48.5703 72.6885 48.4303 74.8423C48.4382 75.7738 48.5084 76.7039 48.6403 77.6261C49.7275 75.4353 50.7693 73.5862 51.5806 71.6425C53.1908 67.7962 54.6486 63.884 56.2217 60.0212C56.5707 59.3548 56.9845 58.7244 57.4572 58.1392C62.4401 63.4145 68.9879 65.1688 75.2391 67.5367C76.9793 68.2177 78.6506 69.063 80.2303 70.0611C82.7012 71.5807 83.6771 74.2122 84.7149 76.7201C86.525 81.1591 87.7367 85.8191 88.3183 90.5775C88.9772 95.7005 89.3601 100.873 89.8131 106.012C89.8067 106.663 89.7069 107.309 89.5166 107.931C89.421 108.381 89.209 108.798 88.9019 109.141C88.5948 109.483 88.2033 109.739 87.7664 109.883C80.034 113.047 71.9349 115.228 63.659 116.373C59.335 116.991 54.9739 117.329 50.6334 117.798C50.3348 117.849 50.0392 117.916 49.7481 118L40.054 117.967Z" fill="white"/>
<path d="M22.5933 15.5456C20.8966 14.8867 19.237 14.3102 17.6515 13.5936C16.7098 13.1666 15.82 12.6333 14.9995 12.004C12.5904 10.1962 12.4751 7.84061 14.9212 6.15218C16.72 4.93488 18.6744 3.96527 20.7319 3.26951C25.5707 1.60168 30.6153 0.913951 35.7012 0.448605C41.4384 -0.0776671 47.2087 -0.141016 52.9561 0.259172C59.2733 0.699809 65.5575 1.45754 71.4876 3.75956C73.3364 4.49119 75.0604 5.50533 76.5981 6.76578C78.1795 8.05063 78.0765 9.80906 76.6517 11.2957C74.7862 13.2477 72.303 14.096 69.8362 14.9485C69.3009 15.1338 68.7573 15.3026 68.2549 15.4632C68.2096 16.5834 68.889 16.8346 69.7456 17.0199C70.9023 17.2632 72.0404 17.588 73.1513 17.9917C74.1314 18.3583 74.8644 19.0789 74.8274 20.232C74.7903 21.3233 74.0861 21.9657 73.1225 22.3281C72.0888 22.7152 71.0387 23.0529 69.898 23.4482C71.0305 25.9191 69.898 27.7723 68.1066 29.4524C67.8669 29.7272 67.7442 30.0849 67.7648 30.449C67.9995 33.7723 67.5136 36.9145 65.6399 39.7601C65.42 40.1598 65.271 40.5944 65.1992 41.0449C63.552 48.1857 59.8827 54.0664 53.9362 58.3986C50.2875 61.0548 46.1941 62.3397 41.6889 61.1948C37.8467 60.2147 34.8282 57.8303 32.2502 54.9065C28.6613 50.924 26.254 46.0196 25.2989 40.7443C25.2534 40.4034 25.1384 40.0754 24.9612 39.7807C23.0874 37.0133 22.7333 33.9 22.7868 30.6714C22.7735 30.211 22.5918 29.7714 22.2762 29.436C20.2583 27.451 19.8794 25.9356 20.8719 23.3041C19.9906 22.9664 19.097 22.6493 18.2281 22.2787C17.2809 21.8669 16.6261 21.1792 16.6797 20.0796C16.7332 18.9801 17.4374 18.3459 18.401 17.9917C19.3161 17.6041 20.2682 17.3102 21.2425 17.1146C22.2144 16.9622 22.548 16.4475 22.5933 15.5456ZM64.7833 31.8821C51.7248 36.7127 38.7898 36.688 25.7354 31.948C26.0607 33.9659 26.2254 36.0661 27.362 37.911C27.7873 38.587 28.0937 39.3308 28.268 40.1101C29.338 45.8124 32.2625 51.0012 36.5866 54.8694C41.5901 59.3993 46.643 59.8111 52.0295 55.9319C57.346 52.1185 60.5993 46.8473 62.2054 40.5219C62.4699 39.5318 62.8573 38.5786 63.3584 37.6845C64.3674 35.8561 64.5815 33.8835 64.7833 31.8821ZM45.9924 19.3507C45.4858 19.8943 45.1234 20.3432 44.7034 20.7303C44.3588 21.0604 43.9675 21.3379 43.5421 21.5539C42.9161 21.8422 42.2408 22.0316 41.623 22.2499L43.0479 24.1401L44.9217 25.6391C45.1852 25.2273 45.77 24.7537 45.7453 24.2883C45.6959 22.6411 47.166 22.3363 47.9238 21.278C48.6609 22.5134 49.2992 23.5553 49.9169 24.6137C50.3287 25.3137 50.7158 25.3055 51.2388 24.7084C51.4897 24.4731 51.6566 24.162 51.7138 23.8229C51.7711 23.4837 51.7156 23.1352 51.5559 22.8305C51.103 21.8613 50.7204 20.8608 50.4111 19.8367C50.3658 19.619 50.3651 19.3943 50.409 19.1764C50.4529 18.9584 50.5405 18.7515 50.6664 18.5683C51.2965 17.7076 52.1325 16.991 52.7049 16.0974C52.8222 15.8638 52.8788 15.6044 52.8694 15.3431C52.8601 15.0819 52.7851 14.8272 52.6513 14.6025C52.3878 14.339 51.5436 14.3596 51.1565 14.6025C50.3766 15.0877 49.6718 15.6843 49.0645 16.3733C48.4138 17.094 47.792 17.1558 46.9519 16.7851C46.0212 16.3486 45.0411 16.0068 44.0692 15.6568C43.1632 15.3314 42.599 15.9409 42.1996 16.5751C42.1213 16.6987 42.7061 17.3699 43.0932 17.6335C43.9827 18.21 44.9258 18.7124 45.9924 19.3507ZM40.8406 17.234C40.8406 16.9334 40.8736 16.5133 40.923 16.0933C41.0136 15.2697 40.7006 14.932 39.8605 15.1667C39.2387 15.3438 38.6251 15.5126 37.9785 15.6485C36.9449 15.875 36.706 16.5586 36.7431 17.5264C36.7678 18.6959 37.6614 18.8236 38.4356 19.0707C40.8653 19.849 40.8694 19.8325 40.8406 17.234ZM46.6842 13.7789C46.4149 12.61 46.0781 11.4578 45.6753 10.3279C45.2964 9.42608 43.468 9.32313 43.052 10.2003C42.5373 11.2833 42.3108 12.5023 41.9237 13.7789H46.6842ZM37.1467 14.8537C38.4562 14.5449 39.5558 14.306 40.6388 14.0054C40.7578 13.949 40.8632 13.8675 40.9478 13.7666C41.0323 13.6657 41.0941 13.5477 41.1289 13.4206C41.3883 12.4035 41.5942 11.3616 41.866 10.1262C39.5352 11.0116 38.0938 12.49 37.1467 14.8537ZM46.746 10.2703C46.9684 11.1763 47.2113 11.9381 47.3349 12.7164C47.4584 13.4948 47.6149 14.0548 48.4715 14.2113C49.328 14.3678 50.2793 14.7137 50.8806 13.6513C50.4767 12.8224 49.8979 12.0909 49.1841 11.5072C48.4704 10.9235 47.6385 10.5015 46.746 10.2703ZM37.1425 19.7419C38.0691 22.1222 39.5352 23.5883 41.8454 24.1771L39.947 22.7523C40.3011 22.4722 40.5441 22.291 40.7706 22.0893C41.343 21.5951 41.2977 20.7879 40.6018 20.5573C39.5599 20.2114 38.448 20.022 37.1425 19.7131V19.7419ZM41.9484 18.2677C41.7754 19.8243 42.529 20.2402 44.2463 19.6102L41.9484 18.2677Z" fill="white"/>
</svg>
