<svg width="52" height="46" viewBox="0 0 52 46" fill="none" xmlns="http://www.w3.org/2000/svg">
<path d="M48.5541 8.58583e-07C40.8876 8.58583e-07 30.6655 2.55552 30.6655 20.4441V40.8883C30.6655 44.0827 32.5975 46.0427 35.7765 45.9993H45.9986C49.193 45.9993 51.1096 44.0827 51.1096 40.9598V25.5552C51.1096 22.3608 49.193 20.4441 45.9986 20.4441C43.4431 20.4441 43.4431 20.4441 43.4431 17.8886V15.3331C43.4431 12.7776 45.9986 10.2221 48.5541 10.2221C51.1096 10.2221 51.1096 10.2016 51.1096 7.58733V2.55552C51.1096 8.58583e-07 51.1096 8.58583e-07 48.5541 8.58583e-07Z" fill="#393939"/>
<path d="M17.8888 8.58583e-07C10.2223 8.58583e-07 0.000204086 2.55552 0.000204086 20.4441V40.8883C0.000204086 44.0827 1.93473 46.0427 5.11124 45.9993H15.3333C18.5277 45.9993 20.4443 44.0827 20.4443 40.9598V25.5552C20.4443 22.3608 18.5277 20.4441 15.3333 20.4441H13.4167C13.4167 14.6942 12.7778 10.2221 20.4443 10.2221V2.55552C20.4443 8.58583e-07 20.4443 8.58583e-07 17.8888 8.58583e-07Z" fill="#393939"/>
</svg>
