<svg width="101" height="118" viewBox="0 0 101 118" fill="none" xmlns="http://www.w3.org/2000/svg">
<path d="M51.3587 0C54.2253 1.34245 55.5616 3.9165 56.6515 6.65682C58.1178 10.418 58.8837 14.4157 58.9115 18.4525C59.0285 26.1716 58.9885 33.8907 59.0501 41.6097C59.0508 42.1128 59.2499 42.5952 59.6043 42.9522C64.269 46.453 68.9707 49.9046 73.6662 53.3654C73.7832 53.4516 73.9156 53.5132 74.2173 53.6918V48.9563H82.1642V52.7712C82.1642 54.6925 82.2043 56.6138 82.1458 58.532C82.1186 58.8882 82.1905 59.245 82.3535 59.5629C82.5166 59.8808 82.7643 60.1474 83.0695 60.3332C88.6455 64.4098 94.1908 68.5295 99.7731 72.5969C100.125 72.8132 100.41 73.1228 100.597 73.4912C100.784 73.8597 100.866 74.2727 100.832 74.6845C100.768 77.4032 100.808 80.122 100.808 83.0717L58.3666 65.6076C58.268 67.5689 58.1603 69.3609 58.0864 71.1498C57.7497 79.0505 57.4203 86.9533 57.098 94.8582C56.9779 97.7339 56.8732 100.613 56.7039 103.479C56.6535 103.774 56.7055 104.076 56.8512 104.337C56.9969 104.597 57.2274 104.8 57.5044 104.911C61.1992 106.928 64.8756 109.009 68.5889 111.014C69.3186 111.408 69.6542 111.817 69.6173 112.683C69.5434 114.401 69.5957 116.128 69.5957 118C67.5112 117.646 65.5314 117.32 63.5547 116.972C59.4411 116.251 55.3522 115.346 51.214 114.862C49.3666 114.65 47.4268 115.226 45.5456 115.54C40.927 116.316 36.3393 117.147 31.7393 117.951C31.5897 117.954 31.4402 117.943 31.2928 117.917C31.2928 115.925 31.2589 113.936 31.3298 111.95C31.3298 111.663 31.8101 111.315 32.1426 111.128C35.8559 109.049 39.5723 106.974 43.3194 104.951C43.9968 104.585 44.2093 104.2 44.1723 103.433C43.7782 94.7258 43.4334 86.0152 43.0608 77.3078C42.8976 73.4714 42.7006 69.6411 42.5127 65.6076L0.145544 83.0594C0.105516 82.5914 0.0562522 82.265 0.0562522 81.9386C0.0562522 79.7833 0.167097 77.628 0.0131461 75.4727C-0.0976983 73.8932 0.493472 72.991 1.74663 72.0858C7.14413 68.2432 12.4554 64.2559 17.8191 60.3486C18.1242 60.1597 18.3717 59.8908 18.5346 59.571C18.6974 59.2513 18.7694 58.8929 18.7428 58.5351C18.6935 55.764 18.7212 52.9929 18.7428 50.2402C18.7428 49.8276 18.7797 49.4181 18.8013 48.9563H26.5758V53.741C27.0407 53.4547 27.327 53.3008 27.5857 53.1252C32.0964 49.803 36.5979 46.4623 41.1333 43.1585C41.3854 42.9939 41.5876 42.7634 41.7179 42.492C41.8482 42.2206 41.9016 41.9186 41.8723 41.619C41.8723 33.8999 41.8323 26.1777 41.9801 18.4617C42.0694 13.6369 42.9592 8.93221 45.173 4.56925C46.1521 2.611 47.4576 0.939098 49.5144 0H51.3587Z" fill="white"/>
</svg>
