<svg xmlns="http://www.w3.org/2000/svg" viewBox="0 0 306.61 255.57"><g id="Layer_2" data-name="Layer 2"><g id="Layer_1-2" data-name="Layer 1"><path d="M80.83,178c9.79-15.82,19.21-31,28.91-46.68-9.13-1.69-17.79-3.06-26.34-4.91-32.66-7.09-58.89-24.2-78.72-51.07a6.93,6.93,0,0,1-.94-4.48c.33-3.19,1.09-6.34,1.77-10l23.21,3.91V0C39.49,1.87,49.41,3.51,59.28,5.42c1.14.22,2.27,1.78,2.93,3Q80.12,41,97.87,73.63c1.39,2.57,2.9,4,6.07,4.51,33.59,5.75,67.15,11.71,100.7,17.68,22,3.92,44.12,7.71,66.08,12a48.13,48.13,0,0,1,26.21,14.22c10.4,11,8.22,24.13-5.25,31.12-10.26,5.33-21.33,5.92-32.45,4.24-15.37-2.32-30.64-5.29-46-7.84a10.65,10.65,0,0,0-5.33.58c-28.55,11-57,22.11-85.59,33.06a14.51,14.51,0,0,1-7.12.75C103.91,182.18,92.66,180.08,80.83,178Z"/><path d="M0,255.57V230.3H306.61v25.27Z"/></g></g></svg>