<svg xmlns="http://www.w3.org/2000/svg" viewBox="0 0 306.88 306.73"><g id="Layer_2" data-name="Layer 2"><g id="Layer_1-2" data-name="Layer 1"><path d="M.3,179.13H178.9v38h63.88v89.56H.3Zm127.78,50.48h25V205h-25Zm-25.84.17v-15.7c0-9.46,0-9.46-9.56-9.46H77.22v25.16Zm25.34,51.06V256.05H102.64v24.79ZM50.73,229.77V204.64c-7.83,0-15.39,0-22.95.07-.66,0-1.87,1-1.88,1.62-.13,7.76-.09,15.53-.09,23.44ZM76.37,256.1H51.66v24.66H76.37Z"/><path d="M122.73,128.06l12.1-42c-8.53,2.18-16.48,4.51-24.57,6.25Q62.13,102.68,18.83,79.05a5.8,5.8,0,0,1-2.61-2.82c-1.16-3.39-1.95-6.91-3-10.67,2.19-.65,4.17-1.25,6.17-1.82s3.81-1.05,6-1.67L0,16.09c8.14-2.18,15.86-4.35,23.65-6.22,1.2-.29,2.85.59,4.07,1.3Q55.92,27.33,84,43.67a8.31,8.31,0,0,0,7,.92Q164.62,24.71,238.28,5c15-4,30.27-6.39,45.84-4.17A53.54,53.54,0,0,1,297,4.28c9,3.78,11.84,10.84,8.52,20.13a30.94,30.94,0,0,1-16.61,18c-8.4,3.86-17.38,6.62-26.31,9.14-20.92,5.91-42,11.34-63,17.1a11.15,11.15,0,0,0-4.88,3C179.84,87.51,165,103.55,150,119.43a13.26,13.26,0,0,1-5.87,3.43C137.35,124.74,130.43,126.23,122.73,128.06Z"/><path d="M294.07,306.73H268.46c-.08-1.57-.24-3.12-.24-4.67q0-53.13,0-106.26c0-3-.59-5.39-3.06-7.11-8.34-5.83-10.61-13.7-10-23.76.87-15,.23-30.17.23-45.26v-4.29h51.23c.06,1.34.16,2.56.16,3.77,0,18.83.08,37.66-.1,56.49,0,2-.94,4.67-2.39,5.72-8.72,6.33-10.74,14.56-10.5,25.13.71,31.78.26,63.6.26,95.4Z"/></g></g></svg>