<svg xmlns="http://www.w3.org/2000/svg" viewBox="0 0 218.08 286.52"><g id="Layer_2" data-name="Layer 2"><g id="Layer_1-2" data-name="Layer 1"><path d="M97.26,286.52l-11.91-1.14c-27.07-2.54-53.49-7.83-78.89-17.87C1.73,265.64-.09,262.45,0,258c.15-7.07.17-14.22,1.23-21.19q3-19.41,7.18-38.62c1.22-5.56,3.81-10.84,5.88-16.21,3.56-9.21,10.76-14.36,19.71-17.64,8.55-3.14,17.06-6.38,25.47-9.85a46.07,46.07,0,0,0,19-13.59c1.22,2,2.53,3.43,3.13,5.14a294.48,294.48,0,0,0,17.22,40.2c.25.48.52.94,1.19,2.17.25-4,.69-7.32.57-10.58-.1-2.92.66-5,3.36-6.35a20.73,20.73,0,0,0,2.81-2c-.4-.33-.65-.57-.93-.77-5-3.66-5-3.66-3.28-9.45.15-.53.29-1.07.45-1.61,1.53-5.33,1.54-5.15,7.15-5.4,2.66-.12,4,.67,4.32,3.26a19.79,19.79,0,0,0,.72,2.69c1.93,6.82,1.94,6.82-3.61,11.06,0,.14,0,.39.1.43,5.42,2.36,6.27,6.88,5.93,12.11a50.84,50.84,0,0,0,.51,6.76c2.64-5.32,5.17-9.81,7.14-14.53,3.91-9.34,7.45-18.84,11.27-28.22a27.81,27.81,0,0,1,3-4.57c12.1,12.81,28,17.07,43.18,22.82a71.41,71.41,0,0,1,12.12,6.13c6,3.69,8.37,10.08,10.89,16.17a131.3,131.3,0,0,1,8.75,33.65c1.6,12.44,2.53,25,3.63,37.48a16.49,16.49,0,0,1-.72,4.66,6.39,6.39,0,0,1-4.25,4.74,242.28,242.28,0,0,1-58.54,15.76c-10.5,1.5-21.09,2.32-31.63,3.46a19.68,19.68,0,0,0-2.15.49Z"/><path d="M54.86,37.81c-4.12-1.6-8.15-3-12-4.74a32.91,32.91,0,0,1-6.44-3.86C30.57,24.82,30.29,19.1,36.23,15a58.76,58.76,0,0,1,14.11-7c11.75-4.05,24-5.72,36.35-6.85a260.56,260.56,0,0,1,41.9-.46c15.34,1.07,30.6,2.91,45,8.5A46.66,46.66,0,0,1,186,16.49c3.84,3.12,3.59,7.39.13,11-4.53,4.74-10.56,6.8-16.55,8.87-1.3.45-2.62.86-3.84,1.25-.11,2.72,1.54,3.33,3.62,3.78a60.92,60.92,0,0,1,8.27,2.36c2.38.89,4.16,2.64,4.07,5.44-.09,2.65-1.8,4.21-4.14,5.09-2.51.94-5.06,1.76-7.83,2.72,2.75,6,0,10.5-4.35,14.58a3.39,3.39,0,0,0-.83,2.42c.57,8.07-.61,15.7-5.16,22.61a9.61,9.61,0,0,0-1.07,3.12c-4,17.34-12.91,31.62-27.35,42.14-8.86,6.45-18.8,9.57-29.74,6.79-9.33-2.38-16.66-8.17-22.92-15.27A70,70,0,0,1,61.43,99a6.11,6.11,0,0,0-.82-2.34c-4.55-6.72-5.41-14.28-5.28-22.12a4.57,4.57,0,0,0-1.24-3c-4.9-4.82-5.82-8.5-3.41-14.89-2.14-.82-4.31-1.59-6.42-2.49-2.3-1-3.89-2.67-3.76-5.34s1.84-4.21,4.18-5.07a35.7,35.7,0,0,1,6.9-2.13C53.94,41.25,54.75,40,54.86,37.81ZM157.31,77.48c-31.71,11.73-63.12,11.67-94.82.16.79,4.9,1.19,10,3.95,14.48a17,17,0,0,1,2.2,5.34,63.9,63.9,0,0,0,20.2,35.84c12.15,11,24.42,12,37.5,2.58,12.91-9.26,20.81-22.06,24.71-37.42a29.85,29.85,0,0,1,2.8-6.89C156.3,87.13,156.82,82.34,157.31,77.48ZM111.68,47.05c-1.23,1.32-2.11,2.41-3.13,3.35a11.8,11.8,0,0,1-2.82,2c-1.52.7-3.16,1.16-4.66,1.69l3.46,4.59,4.55,3.64c.64-1,2.06-2.15,2-3.28-.12-4,3.45-4.74,5.29-7.31,1.79,3,3.34,5.53,4.84,8.1,1,1.7,1.94,1.68,3.21.23a3.82,3.82,0,0,0,.77-4.56,54.16,54.16,0,0,1-2.78-7.27,4,4,0,0,1,.62-3.08c1.53-2.09,3.56-3.83,4.95-6a3.78,3.78,0,0,0-.13-3.63c-.64-.64-2.69-.59-3.63,0a22.88,22.88,0,0,0-5.08,4.3c-1.58,1.75-3.09,1.9-5.13,1-2.26-1.06-4.64-1.89-7-2.74-2.2-.79-3.57.69-4.54,2.23-.19.3,1.23,1.93,2.17,2.57C106.8,44.28,109.09,45.5,111.68,47.05ZM99.17,41.91c0-.73.08-1.75.2-2.77.22-2-.54-2.82-2.58-2.25-1.51.43-3,.84-4.57,1.17-2.51.55-3.09,2.21-3,4.56.06,2.84,2.23,3.15,4.11,3.75C99.23,48.26,99.24,48.22,99.17,41.91Zm14.19-8.39a75.29,75.29,0,0,0-2.45-8.38c-.92-2.19-5.36-2.44-6.37-.31-1.25,2.63-1.8,5.59-2.74,8.69ZM90.2,36.13c3.18-.75,5.85-1.33,8.48-2.06a2.22,2.22,0,0,0,1.19-1.42c.63-2.47,1.13-5,1.79-8C96,26.8,92.5,30.39,90.2,36.13ZM113.51,25c.54,2.2,1.13,4.05,1.43,5.94s.68,3.25,2.76,3.63,4.39,1.22,5.85-1.36A15.49,15.49,0,0,0,113.51,25Zm-23.32,23c2.25,5.78,5.81,9.34,11.42,10.77L97,55.31c.86-.68,1.45-1.12,2-1.61,1.39-1.2,1.28-3.16-.41-3.72C96.06,49.14,93.36,48.68,90.19,47.93Zm11.67-3.58c-.42,3.78,1.41,4.79,5.58,3.26Z"/></g></g></svg>