<svg xmlns="http://www.w3.org/2000/svg" viewBox="0 0 327.52 383.28"><g id="Layer_2" data-name="Layer 2"><g id="Layer_1-2" data-name="Layer 1"><path d="M166.8,0c9.31,4.36,13.65,12.72,17.19,21.62a107.52,107.52,0,0,1,7.34,38.31c.38,25.07.25,50.14.45,75.21a6.2,6.2,0,0,0,1.8,4.36c15.15,11.37,30.42,22.58,45.67,33.82.38.28.81.48,1.79,1.06V159h25.81v12.39c0,6.24.13,12.48-.06,18.71a6.29,6.29,0,0,0,3,5.85c18.11,13.24,36.12,26.62,54.25,39.83a7.27,7.27,0,0,1,3.44,6.78c-.21,8.83-.08,17.66-.08,27.24L189.56,213.08c-.32,6.37-.67,12.19-.91,18q-1.64,38.49-3.21,77c-.39,9.34-.73,18.69-1.28,28a4.24,4.24,0,0,0,2.6,4.65c12,6.55,23.94,13.31,36,19.82,2.37,1.28,3.46,2.61,3.34,5.42-.24,5.58-.07,11.19-.07,17.27-6.77-1.15-13.2-2.21-19.62-3.34-13.36-2.34-26.64-5.28-40.08-6.85-6-.69-12.3,1.18-18.41,2.2-15,2.52-29.9,5.22-44.84,7.83a7.51,7.51,0,0,1-1.45-.11c0-6.47-.11-12.93.12-19.38,0-.93,1.56-2.06,2.64-2.67,12.06-6.75,24.13-13.49,36.3-20.06,2.2-1.19,2.89-2.44,2.77-4.93-1.28-28.28-2.4-56.57-3.61-84.85-.53-12.46-1.17-24.9-1.78-38L.47,269.76c-.13-1.52-.29-2.58-.29-3.64,0-7,.36-14-.14-21-.36-5.13,1.56-8.06,5.63-11C23.2,221.64,40.45,208.69,57.87,196a6.37,6.37,0,0,0,3-5.89c-.16-9-.07-18,0-26.94,0-1.34.12-2.67.19-4.17H86.31v15.54c1.51-.93,2.44-1.43,3.28-2,14.65-10.79,29.27-21.64,44-32.37a5.35,5.35,0,0,0,2.4-5c0-25.07-.13-50.15.35-75.21.29-15.67,3.18-30.95,10.37-45.12C149.89,8.48,154.13,3.05,160.81,0Z"/></g></g></svg>