<svg width="52" height="45" viewBox="0 0 52 45" fill="none" xmlns="http://www.w3.org/2000/svg">
<path d="M52 22.6327C51.4084 23.8959 50.2741 24.4848 49.0665 24.9651C47.409 25.6112 45.6473 25.9487 43.8684 25.961C40.4668 26.0126 37.0651 25.9949 33.6635 26.0221C33.4418 26.0224 33.2292 26.1101 33.0719 26.2663C31.5292 28.3219 30.0081 30.3939 28.483 32.4631C28.445 32.5146 28.4179 32.573 28.3392 32.7059L30.426 32.7059L30.426 36.208L28.7449 36.208C27.8982 36.208 27.0516 36.2256 26.2062 36.1998C26.0493 36.1879 25.892 36.2196 25.7519 36.2914C25.6119 36.3632 25.4944 36.4724 25.4125 36.6069C23.616 39.0641 21.8005 41.5078 20.0081 43.9678C19.9128 44.1229 19.7764 44.2486 19.614 44.331C19.4517 44.4134 19.2697 44.4492 19.0882 44.4346C17.8901 44.4061 16.692 44.4237 15.3921 44.4237L23.0882 25.7209C22.2239 25.6774 21.4342 25.6299 20.6459 25.5974C17.1642 25.449 13.6816 25.3038 10.1981 25.1618C8.9308 25.1089 7.66214 25.0628 6.39891 24.9882C6.26926 24.966 6.13592 24.9889 6.02111 25.0531C5.90631 25.1173 5.81696 25.2189 5.76797 25.3409C4.87923 26.9692 3.96201 28.5892 3.07869 30.2256C2.90502 30.5472 2.72455 30.6951 2.34328 30.6788C1.58615 30.6462 0.824962 30.6693 -3.8666e-06 30.6693C0.156034 29.7507 0.29986 28.8783 0.453184 28.0072C0.770688 26.1944 1.1696 24.3925 1.38263 22.5689C1.47625 21.7548 1.22252 20.9 1.08412 20.0709C0.742194 18.0356 0.375845 16.0139 0.021707 13.9868C0.0203062 13.9209 0.0253028 13.855 0.0366304 13.7901C0.914514 13.7901 1.79104 13.7751 2.66621 13.8063C2.7924 13.8063 2.94572 14.018 3.02849 14.1645C3.94436 15.8009 4.85889 17.4386 5.75034 19.0899C5.9118 19.3884 6.08141 19.482 6.41926 19.4658C10.2564 19.2921 14.095 19.1401 17.9322 18.9759C19.6228 18.904 21.3107 18.8172 23.0882 18.7344L15.3976 0.0641362C15.6038 0.0464972 15.7476 0.0247875 15.8914 0.0247875C16.8412 0.0247876 17.791 0.0736343 18.7408 0.00579173C19.4369 -0.0430549 19.8345 0.217461 20.2334 0.7697C21.9267 3.14826 23.6839 5.48883 25.4057 7.85247C25.4889 7.98694 25.6074 8.096 25.7484 8.16777C25.8893 8.23954 26.0472 8.27128 26.2049 8.25952C27.426 8.23781 28.6472 8.25003 29.8602 8.25952C30.0421 8.25952 30.2225 8.27581 30.426 8.2853L30.426 11.7114L28.3175 11.7114C28.4437 11.9162 28.5115 12.0424 28.5889 12.1564C30.0529 14.1442 31.5251 16.1279 32.981 18.1266C33.0535 18.2376 33.1551 18.3267 33.2747 18.3842C33.3943 18.4416 33.5274 18.4651 33.6594 18.4522C37.0611 18.4522 40.464 18.4346 43.8643 18.4997C45.9905 18.539 48.0638 18.9312 49.9864 19.9067C50.8494 20.3382 51.5862 20.9135 52 21.8199L52 22.6327Z" fill="white"/>
</svg>
